<?xml version="1.0" encoding="UTF-8" standalone="no"?>
<!DOCTYPE svg PUBLIC "-//W3C//DTD SVG 1.1//EN" "http://www.w3.org/Graphics/SVG/1.1/DTD/svg11.dtd">
<svg width="100%" height="100%" viewBox="0 0 780 780" version="1.1" xmlns="http://www.w3.org/2000/svg" xmlns:xlink="http://www.w3.org/1999/xlink" xml:space="preserve" xmlns:serif="http://www.serif.com/" style="fill-rule:evenodd;clip-rule:evenodd;stroke-linecap:round;stroke-linejoin:round;stroke-miterlimit:1.5;">
    <g transform="matrix(1,0,0,1,-98,-79)">
        <g transform="matrix(0.4463,0,0,0.4463,90.657,186.526)">
            <path d="M155.494,583.374L190.346,675.666L155.494,767.959L120.642,675.666L155.494,583.374Z" style="stroke:black;stroke-width:20.91px;"/>
            <g transform="matrix(6.12323e-17,-1,1,6.12323e-17,-520.172,831.16)">
                <path d="M155.494,583.374L190.346,675.666L155.494,767.959L120.642,675.666L155.494,583.374Z" style="stroke:black;stroke-width:20.91px;"/>
            </g>
        </g>
        <g transform="matrix(0.604368,0,0,0.604368,205.522,-262.435)">
            <path d="M155.494,583.374L190.346,675.666L155.494,767.959L120.642,675.666L155.494,583.374Z" style="stroke:black;stroke-width:19.86px;"/>
            <g transform="matrix(6.12323e-17,-1,1,6.12323e-17,-520.172,831.16)">
                <path d="M155.494,583.374L190.346,675.666L155.494,767.959L120.642,675.666L155.494,583.374Z" style="stroke:black;stroke-width:19.86px;"/>
            </g>
        </g>
        <g transform="matrix(0.479535,0,0,0.479535,690.709,-78.3508)">
            <path d="M155.494,583.374L190.346,675.666L155.494,767.959L120.642,675.666L155.494,583.374Z" style="stroke:black;stroke-width:19.46px;"/>
            <g transform="matrix(6.12323e-17,-1,1,6.12323e-17,-520.172,831.16)">
                <path d="M155.494,583.374L190.346,675.666L155.494,767.959L120.642,675.666L155.494,583.374Z" style="stroke:black;stroke-width:19.46px;"/>
            </g>
        </g>
        <g transform="matrix(0.423662,0,0,0.423662,756.143,260.518)">
            <path d="M155.494,583.374L190.346,675.666L155.494,767.959L120.642,675.666L155.494,583.374Z" style="stroke:black;stroke-width:22.03px;"/>
            <g transform="matrix(6.12323e-17,-1,1,6.12323e-17,-520.172,831.16)">
                <path d="M155.494,583.374L190.346,675.666L155.494,767.959L120.642,675.666L155.494,583.374Z" style="stroke:black;stroke-width:22.03px;"/>
            </g>
        </g>
        <g transform="matrix(0.870045,0,0,0.870045,76.9739,176.835)">
            <path d="M155.494,583.374L190.346,675.666L155.494,767.959L120.642,675.666L155.494,583.374Z" style="stroke:black;stroke-width:16.86px;"/>
            <g transform="matrix(6.12323e-17,-1,1,6.12323e-17,-520.172,831.16)">
                <path d="M155.494,583.374L190.346,675.666L155.494,767.959L120.642,675.666L155.494,583.374Z" style="stroke:black;stroke-width:16.86px;"/>
            </g>
        </g>
        <g transform="matrix(0.654515,0.756049,-0.756049,0.654515,569.169,-222.48)">
            <ellipse cx="517.884" cy="523.951" rx="27.911" ry="73.968" style="stroke:black;stroke-width:33.33px;"/>
        </g>
        <path d="M561.48,471.081C588.732,432.089 552.074,393.191 527.386,379.97C489.872,359.879 432.606,367.51 391.006,391.929C358.098,411.247 321.759,442.295 306.81,483.738C289.815,530.851 292.741,582.705 301.573,623.169C311.108,666.854 350.316,727.568 396.869,756.913C438.154,782.936 496.584,796.654 549.883,792.904C665.177,784.793 796.163,703.749 818.175,658.185" style="fill:none;stroke:black;stroke-width:46.67px;"/>
        <g transform="matrix(-0.999766,0.0216195,-0.0216195,-0.999766,1051.08,974.95)">
            <path d="M544.306,446.386C544.306,446.386 579.833,440.687 584.67,427.664C599.884,386.704 551.273,344.357 504.019,342.577C450.902,340.577 374.174,389.271 342.788,460.089C305.364,544.53 344.872,633.345 392.738,681.963C438.78,728.728 519.69,775.749 635.852,755.577C752.015,735.405 813.958,666.765 835.97,621.2" style="fill:none;stroke:black;stroke-width:46.67px;"/>
        </g>
    </g>
</svg>
