<?xml version="1.0" encoding="UTF-8" standalone="no"?>
<!DOCTYPE svg PUBLIC "-//W3C//DTD SVG 1.1//EN" "http://www.w3.org/Graphics/SVG/1.1/DTD/svg11.dtd">
<svg width="100%" height="100%" viewBox="0 0 862 862" version="1.1" xmlns="http://www.w3.org/2000/svg" xmlns:xlink="http://www.w3.org/1999/xlink" xml:space="preserve" xmlns:serif="http://www.serif.com/" style="fill-rule:evenodd;clip-rule:evenodd;stroke-linejoin:round;stroke-miterlimit:2;">
    <g transform="matrix(1,0,0,1,-84,-84)">
        <g transform="matrix(0.610346,0,0,0.610346,64.0177,115.397)">
            <path d="M155.494,583.374L190.346,675.666L155.494,767.959L120.642,675.666L155.494,583.374Z"/>
            <path d="M167.756,578.743C165.83,573.642 160.947,570.266 155.494,570.266C150.041,570.266 145.158,573.642 143.232,578.743L108.38,671.036C107.253,674.02 107.253,677.313 108.38,680.297L143.232,772.59C145.158,777.691 150.041,781.067 155.494,781.067C160.947,781.067 165.83,777.691 167.756,772.59L202.608,680.297C203.735,677.313 203.735,674.02 202.608,671.036L167.756,578.743ZM134.653,675.666L155.494,730.857L176.335,675.666L155.494,620.476L134.653,675.666Z"/>
            <g transform="matrix(6.12323e-17,-1,1,6.12323e-17,-520.172,831.16)">
                <path d="M155.494,583.374L190.346,675.666L155.494,767.959L120.642,675.666L155.494,583.374Z"/>
            </g>
            <g transform="matrix(6.12323e-17,-1,1,6.12323e-17,-520.172,831.16)">
                <path d="M167.756,578.743C165.83,573.642 160.947,570.266 155.494,570.266C150.041,570.266 145.158,573.642 143.232,578.743L108.38,671.036C107.253,674.02 107.253,677.313 108.38,680.297L143.232,772.59C145.158,777.691 150.041,781.067 155.494,781.067C160.947,781.067 165.83,777.691 167.756,772.59L202.608,680.297C203.735,677.313 203.735,674.02 202.608,671.036L167.756,578.743ZM155.494,620.476L134.653,675.666L155.494,730.857L176.335,675.666L155.494,620.476Z"/>
            </g>
        </g>
        <g transform="matrix(0.782987,0,0,0.782987,734.056,-11.0835)">
            <path d="M155.494,583.374L190.346,675.666L155.494,767.959L120.642,675.666L155.494,583.374Z"/>
            <path d="M166.646,579.162C164.894,574.523 160.453,571.453 155.494,571.453C150.535,571.453 146.094,574.523 144.342,579.162L109.49,671.455C108.466,674.169 108.466,677.164 109.49,679.878L144.342,772.17C146.094,776.809 150.535,779.879 155.494,779.879C160.453,779.879 164.894,776.809 166.646,772.17L201.498,679.878C202.522,677.164 202.522,674.169 201.498,671.455L166.646,579.162ZM133.384,675.666L155.494,734.217L177.604,675.666L155.494,617.115L133.384,675.666Z"/>
            <g transform="matrix(6.12323e-17,-1,1,6.12323e-17,-520.172,831.16)">
                <path d="M155.494,583.374L190.346,675.666L155.494,767.959L120.642,675.666L155.494,583.374Z"/>
            </g>
            <g transform="matrix(6.12323e-17,-1,1,6.12323e-17,-520.172,831.16)">
                <path d="M166.646,579.162C164.894,574.523 160.453,571.453 155.494,571.453C150.535,571.453 146.094,574.523 144.342,579.162L109.49,671.455C108.466,674.169 108.466,677.164 109.49,679.878L144.342,772.17C146.094,776.809 150.535,779.879 155.494,779.879C160.453,779.879 164.894,776.809 166.646,772.17L201.498,679.878C202.522,677.164 202.522,674.169 201.498,671.455L166.646,579.162ZM155.494,617.115L133.384,675.666L155.494,734.217L177.604,675.666L155.494,617.115Z"/>
            </g>
        </g>
        <g transform="matrix(0.677503,0,0,0.677503,678.197,-230.382)">
            <path d="M155.494,583.374L190.346,675.666L155.494,767.959L120.642,675.666L155.494,583.374Z"/>
            <path d="M166.541,579.202C164.805,574.607 160.406,571.565 155.494,571.565C150.582,571.565 146.183,574.607 144.447,579.202L109.595,671.495C108.58,674.183 108.58,677.15 109.595,679.838L144.447,772.131C146.183,776.726 150.582,779.767 155.494,779.767C160.406,779.767 164.805,776.726 166.541,772.131L201.393,679.838C202.408,677.15 202.408,674.183 201.393,671.495L166.541,579.202ZM133.264,675.666L155.494,734.535L177.724,675.666L155.494,616.798L133.264,675.666Z"/>
            <g transform="matrix(6.12323e-17,-1,1,6.12323e-17,-520.172,831.16)">
                <path d="M155.494,583.374L190.346,675.666L155.494,767.959L120.642,675.666L155.494,583.374Z"/>
            </g>
            <g transform="matrix(6.12323e-17,-1,1,6.12323e-17,-520.172,831.16)">
                <path d="M166.541,579.202C164.805,574.607 160.406,571.565 155.494,571.565C150.582,571.565 146.183,574.607 144.447,579.202L109.595,671.495C108.58,674.183 108.58,677.15 109.595,679.838L144.447,772.131C146.183,776.726 150.582,779.767 155.494,779.767C160.406,779.767 164.805,776.726 166.541,772.131L201.393,679.838C202.408,677.15 202.408,674.183 201.393,671.495L166.541,579.202ZM155.494,616.798L133.264,675.666L155.494,734.535L177.724,675.666L155.494,616.798Z"/>
            </g>
        </g>
        <g transform="matrix(0.578026,0,0,0.578026,177.415,-227.169)">
            <path d="M155.494,583.374L190.346,675.666L155.494,767.959L120.642,675.666L155.494,583.374Z"/>
            <path d="M167.363,578.892C165.498,573.954 160.772,570.687 155.494,570.687C150.216,570.687 145.49,573.954 143.625,578.892L108.773,671.184C107.682,674.073 107.682,677.26 108.773,680.148L143.625,772.441C145.49,777.379 150.216,780.646 155.494,780.646C160.772,780.646 165.498,777.379 167.363,772.441L202.215,680.148C203.306,677.26 203.306,674.073 202.215,671.184L167.363,578.892ZM134.203,675.666L155.494,732.047L176.785,675.666L155.494,619.286L134.203,675.666Z"/>
            <g transform="matrix(6.12323e-17,-1,1,6.12323e-17,-520.172,831.16)">
                <path d="M155.494,583.374L190.346,675.666L155.494,767.959L120.642,675.666L155.494,583.374Z"/>
            </g>
            <g transform="matrix(6.12323e-17,-1,1,6.12323e-17,-520.172,831.16)">
                <path d="M167.363,578.892C165.498,573.954 160.772,570.687 155.494,570.687C150.216,570.687 145.49,573.954 143.625,578.892L108.773,671.184C107.682,674.073 107.682,677.26 108.773,680.148L143.625,772.441C145.49,777.379 150.216,780.646 155.494,780.646C160.772,780.646 165.498,777.379 167.363,772.441L202.215,680.148C203.306,677.26 203.306,674.073 202.215,671.184L167.363,578.892ZM155.494,619.286L134.203,675.666L155.494,732.047L176.785,675.666L155.494,619.286Z"/>
            </g>
        </g>
        <g transform="matrix(0.99914,0,0,0.99914,107.733,158.274)">
            <path d="M155.494,583.374L190.346,675.666L155.494,767.959L120.642,675.666L155.494,583.374Z"/>
            <path d="M166.106,579.366C164.439,574.952 160.213,572.03 155.494,572.03C150.775,572.03 146.549,574.952 144.882,579.366L110.03,671.659C109.055,674.242 109.055,677.091 110.03,679.674L144.882,771.967C146.549,776.381 150.775,779.302 155.494,779.302C160.213,779.302 164.439,776.381 166.106,771.967L200.958,679.674C201.933,677.091 201.933,674.242 200.958,671.659L166.106,579.366ZM132.767,675.666L155.494,735.851L178.221,675.666L155.494,615.482L132.767,675.666Z"/>
            <g transform="matrix(6.12323e-17,-1,1,6.12323e-17,-520.172,831.16)">
                <path d="M155.494,583.374L190.346,675.666L155.494,767.959L120.642,675.666L155.494,583.374Z"/>
            </g>
            <g transform="matrix(6.12323e-17,-1,1,6.12323e-17,-520.172,831.16)">
                <path d="M166.106,579.366C164.439,574.952 160.213,572.03 155.494,572.03C150.775,572.03 146.549,574.952 144.882,579.366L110.03,671.659C109.055,674.242 109.055,677.091 110.03,679.674L144.882,771.967C146.549,776.381 150.775,779.302 155.494,779.302C160.213,779.302 164.439,776.381 166.106,771.967L200.958,679.674C201.933,677.091 201.933,674.242 200.958,671.659L166.106,579.366ZM155.494,615.482L132.767,675.666L155.494,735.851L178.221,675.666L155.494,615.482Z"/>
            </g>
        </g>
        <g transform="matrix(0.654515,0.756049,-0.756049,0.654515,569.169,-222.48)">
            <ellipse cx="517.884" cy="523.951" rx="27.911" ry="73.968"/>
        </g>
        <g transform="matrix(0.654515,0.756049,-0.756049,0.654515,569.169,-222.48)">
            <path d="M517.884,425.983C506.679,425.983 494.967,431.326 485.655,444.124C474.727,459.144 465.973,489.1 465.973,523.951C465.973,558.801 474.727,588.757 485.655,603.777C494.967,616.576 506.679,621.919 517.884,621.919C529.09,621.919 540.802,616.576 550.114,603.777C561.042,588.757 569.796,558.801 569.796,523.951C569.796,489.1 561.042,459.144 550.114,444.124C540.802,431.326 529.09,425.983 517.884,425.983ZM517.884,488.965C515.362,498.939 513.973,510.993 513.973,523.951C513.973,536.909 515.362,548.963 517.884,558.936C520.407,548.963 521.796,536.909 521.796,523.951C521.796,510.993 520.407,498.939 517.884,488.965Z"/>
        </g>
        <path d="M586.07,488.267C625.823,431.388 577.562,372.81 541.55,353.524C496.006,329.133 426.322,336.412 375.819,366.058C337.528,388.535 295.985,425.336 278.59,473.559C259.572,526.279 262.38,584.287 272.263,629.566C283.144,679.418 327.746,748.804 380.872,782.292C427.059,811.405 492.361,827.026 551.989,822.83C638.422,816.749 733.192,772.654 790.3,729.851C818.043,709.056 837.171,687.83 845.188,671.235C852.391,656.326 846.134,638.374 831.225,631.172C816.316,623.969 798.365,630.226 791.162,645.135C783.858,660.254 760.976,678.838 731.364,697.62C681.572,729.2 612.104,758.453 547.778,762.978C500.807,766.283 449.25,754.467 412.867,731.534C372.885,706.332 339.072,654.289 330.883,616.771C323.102,581.123 320.058,535.424 335.03,493.918C347.535,459.252 378.666,433.96 406.193,417.801C438.899,398.603 483.729,390.621 513.223,406.416C521.426,410.809 531.682,419.402 537.56,430.202C541.352,437.171 542.734,445.535 536.891,453.896C527.406,467.467 530.723,486.186 544.295,495.671C557.866,505.156 576.585,501.838 586.07,488.267Z"/>
        <g transform="matrix(-0.999766,0.0216195,-0.0216195,-0.999766,1051.08,974.95)">
            <path d="M557.561,411.233C557.387,404.128 552.493,397.494 546.708,391.792C535.594,380.835 519.142,373.168 502.889,372.556C458.707,370.892 396.322,413.339 370.215,472.245C338.339,544.167 373.346,619.505 414.116,660.916C455.112,702.556 527.288,743.981 630.72,726.019C733.696,708.137 789.444,648.543 808.958,608.151C816.16,593.242 834.112,586.985 849.02,594.188C863.929,601.39 870.186,619.342 862.983,634.25C838.472,684.989 770.338,762.672 640.985,785.135C512.092,807.518 422.448,754.901 371.36,703.01C316.396,647.183 272.388,544.895 315.361,447.933C352.031,365.194 443.089,310.261 505.148,312.599C542.64,314.011 580.656,334.968 600.822,363.021C616.98,385.498 622.465,412.07 612.793,438.11C609.177,447.845 600.321,457.644 587.394,464.204C571.65,472.193 549.062,476.006 549.057,476.007C532.709,478.629 517.307,467.486 514.684,451.137C512.062,434.789 523.206,419.387 539.554,416.764L557.561,411.233ZM549.057,476.007C549.057,476.007 549.057,476.007 549.057,476.007Z"/>
        </g>
    </g>
</svg>
